<?xml version="1.0" encoding="UTF-8"?>
<svg xmlns="http://www.w3.org/2000/svg" width="500" height="500">
<title>FA Camera</title>
  <circle cx="250" cy="250" r="95" stroke="" stroke-width="" fill="white"/>
  <path
     d="m 215,25.71044 0,121.43225 q 0,4.68753 -4.35265,6.58481 -1.45087,0.55805 -2.79023,0.55805 -3.01337,0 -5.02234,-2.12056 l -44.97768,-44.9777 0,18.52645 q 0,13.28162 -9.48643,22.76804 -9.37522,9.37522 -22.65605,9.37522 l -78.57136,0 q -13.28162,0 -22.76804,-9.37522 Q 15,138.99536 15,125.71374 l 0,-78.57137 q 0,-13.28163 9.37522,-22.65604 9.48642,-9.48642 22.76804,-9.48642 l 78.57136,0 q 13.28164,0 22.65605,9.48642 9.48643,9.37521 9.48643,22.65604 l 0,18.415241 44.97768,-44.866491 q 2.00888,-2.12057 5.02234,-2.12057 1.33927,0 2.79023,0.55805 Q 215,21.02597 215,25.7135 Z"
     fill="#887001" 
     stroke="#000000" stroke-width="5"/>

</svg>