<?xml version="1.0" encoding="UTF-8"?>
<svg width="512" height="512" version="1.1" viewBox="0 0 512.00001 512.00001" xmlns="http://www.w3.org/2000/svg" xmlns:cc="http://creativecommons.org/ns#" xmlns:dc="http://purl.org/dc/elements/1.1/" xmlns:rdf="http://www.w3.org/1999/02/22-rdf-syntax-ns#">
<metadata>
<rdf:RDF>
<cc:Work rdf:about="">
<dc:format>image/svg+xml</dc:format>
<dc:type rdf:resource="http://purl.org/dc/dcmitype/StillImage"/>
<dc:title/>
</cc:Work>
</rdf:RDF>
</metadata>
<g transform="translate(0 -540.36)">
<g fill="#333">
<g stroke-width="1px">
<path d="m34.934 935.31h-3.934v-3.6186h3.934v3.6186zm-0.22268 24.198h-3.4887v-20.728h3.4887v20.728z"/>
<path d="m58.835 959.51h-3.4887v-11.802q0-1.4289-0.16701-2.6722-0.16701-1.2619-0.61237-1.967-0.46392-0.77938-1.3361-1.1505-0.87216-0.38969-2.2639-0.38969-1.4289 0-2.9876 0.70516-1.5588 0.70515-2.9876 1.8v15.476h-3.4887v-20.728h3.4887v2.301q1.633-1.3546 3.3773-2.1155 1.7443-0.76083 3.5814-0.76083 3.3588 0 5.1216 2.0227 1.7629 2.0227 1.7629 5.8268v13.454z"/>
<path d="m76.315 959.33q-0.9835 0.25979-2.1526 0.4268-1.1505 0.16701-2.0598 0.16701-3.1732 0-4.8247-1.7072-1.6515-1.7072-1.6515-5.4742v-11.023h-2.3567v-2.932h2.3567v-5.9567h3.4887v5.9567h7.2v2.932h-7.2v9.4454q0 1.633 0.07423 2.5608 0.07423 0.90927 0.51959 1.7072 0.40825 0.74227 1.1134 1.0948 0.72371 0.33402 2.1897 0.33402 0.85361 0 1.7814-0.24124 0.92784-0.25979 1.3361-0.4268h0.18557v3.1361z"/>
<path d="m97.897 949.51h-15.272q0 1.9113 0.57526 3.3402 0.57526 1.4103 1.5773 2.3196 0.96495 0.89072 2.2825 1.3361 1.3361 0.44536 2.932 0.44536 2.1155 0 4.2495-0.83505 2.1526-0.85361 3.0619-1.6701h0.18557v3.8041q-1.7629 0.74227-3.6 1.2433t-3.8598 0.50103q-5.1588 0-8.0536-2.7835-2.8948-2.8021-2.8948-7.9423 0-5.0845 2.7649-8.0722 2.7835-2.9876 7.3113-2.9876 4.1938 0 6.4577 2.4495 2.2825 2.4495 2.2825 6.9588v1.8928zm-3.3959-2.6722q-0.01856-2.7464-1.3918-4.2495-1.3546-1.5031-4.1381-1.5031-2.8021 0-4.4722 1.6516-1.6515 1.6516-1.8742 4.101h11.876z"/>
<path d="m116.12 942.59h-0.18557q-0.77938-0.18557-1.5216-0.2598-0.72371-0.0928-1.7258-0.0928-1.6144 0-3.1175 0.72371-1.5031 0.70515-2.8948 1.8371v14.715h-3.4887v-20.728h3.4887v3.0619q2.0784-1.6701 3.6557-2.3567 1.5959-0.70516 3.2474-0.70516 0.90928 0 1.3175 0.0557 0.40824 0.0371 1.2247 0.16701v3.5814z"/>
<path d="m130.59 934.02h-0.18556q-0.57526-0.16701-1.5031-0.33402-0.92783-0.18557-1.633-0.18557-2.2454 0-3.266 1.0021-1.0021 0.98351-1.0021 3.5814v0.70515h6.2907v2.932h-6.1794v17.796h-3.4887v-17.796h-2.3567v-2.932h2.3567v-0.6866q0-3.6928 1.8371-5.6598 1.8371-1.9856 5.3072-1.9856 1.1691 0 2.0969 0.11134 0.94639 0.11134 1.7258 0.2598v3.1918z"/>
<path d="m148.91 959.51h-3.4701v-2.2082q-0.46391 0.31546-1.2618 0.89072-0.77938 0.5567-1.5216 0.89072-0.87217 0.42681-2.0041 0.70516-1.132 0.2969-2.6536 0.2969-2.8021 0-4.7505-1.8557-1.9484-1.8557-1.9484-4.732 0-2.3567 1.0021-3.8041 1.0206-1.466 2.8948-2.301 1.8928-0.83505 4.5464-1.132 2.6536-0.29691 5.6969-0.44536v-0.53814q0-1.1876-0.4268-1.967-0.40825-0.77938-1.1876-1.2248-0.74227-0.4268-1.7814-0.57525-1.0392-0.14846-2.1711-0.14846-1.3732 0-3.0618 0.37114-1.6887 0.35257-3.4887 1.0392h-0.18557v-3.5443q1.0206-0.27835 2.9505-0.61237 1.9299-0.33402 3.8041-0.33402 2.1897 0 3.8041 0.37114 1.633 0.35257 2.8206 1.2247 1.1691 0.85361 1.7814 2.2082 0.61237 1.3546 0.61237 3.3588v14.066zm-3.4701-5.1031v-5.7711q-1.5959 0.0928-3.767 0.27835-2.1526 0.18557-3.4144 0.53814-1.5031 0.42681-2.4309 1.3361-0.92783 0.89072-0.92783 2.468 0 1.7814 1.0763 2.6907 1.0763 0.89072 3.2845 0.89072 1.8371 0 3.3588-0.70515 1.5216-0.72372 2.8206-1.7258z"/>
<path d="m170.99 958.21q-1.7443 0.83505-3.3216 1.299-1.5588 0.46391-3.3216 0.46391-2.2454 0-4.1196-0.64948-1.8742-0.66804-3.2103-2.0041-1.3546-1.3361-2.0969-3.3773-0.74227-2.0412-0.74227-4.7691 0-5.0845 2.7835-7.9794 2.8021-2.8948 7.3856-2.8948 1.7814 0 3.4887 0.50103 1.7258 0.50103 3.1546 1.2247v3.8784h-0.18557q-1.5959-1.2433-3.3031-1.9113-1.6887-0.66804-3.3031-0.66804-2.9691 0-4.6948 2.0041-1.7072 1.9856-1.7072 5.8454 0 3.7485 1.6701 5.7711 1.6887 2.0041 4.732 2.0041 1.0577 0 2.1526-0.27835 1.0948-0.27835 1.967-0.72371 0.76083-0.38969 1.4289-0.8165 0.66804-0.44536 1.0577-0.76082h0.18557v3.8412z"/>
<path d="m192.83 949.51h-15.272q0 1.9113 0.57525 3.3402 0.57526 1.4103 1.5773 2.3196 0.96495 0.89072 2.2825 1.3361 1.3361 0.44536 2.932 0.44536 2.1155 0 4.2495-0.83505 2.1526-0.85361 3.0619-1.6701h0.18556v3.8041q-1.7629 0.74227-3.6 1.2433-1.8371 0.50103-3.8598 0.50103-5.1588 0-8.0536-2.7835-2.8948-2.8021-2.8948-7.9423 0-5.0845 2.7649-8.0722 2.7835-2.9876 7.3113-2.9876 4.1938 0 6.4577 2.4495 2.2825 2.4495 2.2825 6.9588v1.8928zm-3.3959-2.6722q-0.0185-2.7464-1.3918-4.2495-1.3546-1.5031-4.1381-1.5031-2.8021 0-4.4722 1.6516-1.6515 1.6516-1.8742 4.101h11.876z"/>
<path d="m228.29 957.16q0 5.2701-2.3938 7.7382-2.3938 2.468-7.367 2.468-1.6515 0-3.2289-0.24124-1.5588-0.22268-3.0804-0.64948v-3.5629h0.18557q0.85361 0.33402 2.7093 0.8165 1.8557 0.50103 3.7113 0.50103 1.7814 0 2.9505-0.42681 1.1691-0.4268 1.8186-1.1876 0.64948-0.72371 0.92784-1.7443 0.27835-1.0206 0.27835-2.2825v-1.8928q-1.5773 1.2618-3.0248 1.8928-1.4289 0.61237-3.6557 0.61237-3.7113 0-5.901-2.6722-2.1711-2.6907-2.1711-7.5711 0-2.6722 0.74227-4.6021 0.76082-1.9484 2.0598-3.3588 1.2062-1.3175 2.932-2.0412 1.7258-0.74227 3.433-0.74227 1.8 0 3.0062 0.37114 1.2248 0.35258 2.5794 1.0948l0.22268-0.89072h3.266v18.371zm-3.4887-3.3402v-11.301q-1.3918-0.63093-2.5979-0.89072-1.1876-0.27835-2.3753-0.27835-2.8763 0-4.5278 1.9299-1.6516 1.9299-1.6516 5.6041 0 3.4887 1.2247 5.2887t4.0639 1.8q1.5216 0 3.0433-0.57526 1.5402-0.59382 2.8206-1.5773z"/>
<path d="m248.09 942.59h-0.18557q-0.77938-0.18557-1.5216-0.2598-0.72371-0.0928-1.7258-0.0928-1.6144 0-3.1175 0.72371-1.5031 0.70515-2.8948 1.8371v14.715h-3.4887v-20.728h3.4887v3.0619q2.0784-1.6701 3.6557-2.3567 1.5959-0.70516 3.2474-0.70516 0.90928 0 1.3175 0.0557 0.40825 0.0371 1.2247 0.16701v3.5814z"/>
<path d="m267.52 959.51h-3.4701v-2.2082q-0.46392 0.31546-1.2619 0.89072-0.77938 0.5567-1.5216 0.89072-0.87216 0.42681-2.0041 0.70516-1.132 0.2969-2.6536 0.2969-2.8021 0-4.7505-1.8557-1.9485-1.8557-1.9485-4.732 0-2.3567 1.0021-3.8041 1.0206-1.466 2.8948-2.301 1.8928-0.83505 4.5464-1.132t5.6969-0.44536v-0.53814q0-1.1876-0.42681-1.967-0.40824-0.77938-1.1876-1.2248-0.74227-0.4268-1.7814-0.57525-1.0392-0.14846-2.1711-0.14846-1.3732 0-3.0619 0.37114-1.6887 0.35257-3.4887 1.0392h-0.18556v-3.5443q1.0206-0.27835 2.9505-0.61237 1.9299-0.33402 3.8041-0.33402 2.1897 0 3.8041 0.37114 1.633 0.35257 2.8206 1.2247 1.1691 0.85361 1.7814 2.2082 0.61237 1.3546 0.61237 3.3588v14.066zm-3.4701-5.1031v-5.7711q-1.5959 0.0928-3.767 0.27835-2.1526 0.18557-3.4144 0.53814-1.5031 0.42681-2.4309 1.3361-0.92784 0.89072-0.92784 2.468 0 1.7814 1.0763 2.6907 1.0763 0.89072 3.2845 0.89072 1.8371 0 3.3588-0.70515 1.5216-0.72372 2.8206-1.7258zm1.2618-25.998-5.066 6.9402h-2.765l3.3216-6.9402h4.5093z"/>
<path d="m285.43 934.02h-0.18557q-0.57525-0.16701-1.5031-0.33402-0.92783-0.18557-1.633-0.18557-2.2454 0-3.266 1.0021-1.0021 0.98351-1.0021 3.5814v0.70515h6.2907v2.932h-6.1794v17.796h-3.4887v-17.796h-2.3567v-2.932h2.3567v-0.6866q0-3.6928 1.8371-5.6598 1.8371-1.9856 5.3072-1.9856 1.1691 0 2.0969 0.11134 0.94639 0.11134 1.7258 0.2598v3.1918z"/>
<path d="m291.39 935.31h-3.934v-3.6186h3.934v3.6186zm-0.22268 24.198h-3.4887v-20.728h3.4887v20.728z"/>
<path d="m313.28 958.21q-1.7443 0.83505-3.3216 1.299-1.5588 0.46391-3.3216 0.46391-2.2454 0-4.1196-0.64948-1.8742-0.66804-3.2103-2.0041-1.3546-1.3361-2.0969-3.3773-0.74227-2.0412-0.74227-4.7691 0-5.0845 2.7835-7.9794 2.8021-2.8948 7.3856-2.8948 1.7814 0 3.4887 0.50103 1.7258 0.50103 3.1546 1.2247v3.8784h-0.18557q-1.5959-1.2433-3.3031-1.9113-1.6887-0.66804-3.3031-0.66804-2.9691 0-4.6948 2.0041-1.7072 1.9856-1.7072 5.8454 0 3.7485 1.6701 5.7711 1.6887 2.0041 4.732 2.0041 1.0577 0 2.1526-0.27835 1.0948-0.27835 1.967-0.72371 0.76083-0.38969 1.4289-0.8165 0.66804-0.44536 1.0577-0.76082h0.18557v3.8412z"/>
<path d="m333.88 959.51h-3.4701v-2.2082q-0.46392 0.31546-1.2619 0.89072-0.77938 0.5567-1.5216 0.89072-0.87216 0.42681-2.0041 0.70516-1.132 0.2969-2.6536 0.2969-2.8021 0-4.7505-1.8557-1.9485-1.8557-1.9485-4.732 0-2.3567 1.0021-3.8041 1.0206-1.466 2.8948-2.301 1.8928-0.83505 4.5464-1.132t5.6969-0.44536v-0.53814q0-1.1876-0.42681-1.967-0.40824-0.77938-1.1876-1.2248-0.74227-0.4268-1.7814-0.57525-1.0392-0.14846-2.1711-0.14846-1.3732 0-3.0619 0.37114-1.6887 0.35257-3.4887 1.0392h-0.18556v-3.5443q1.0206-0.27835 2.9505-0.61237 1.9299-0.33402 3.8041-0.33402 2.1897 0 3.8041 0.37114 1.633 0.35257 2.8206 1.2247 1.1691 0.85361 1.7814 2.2082 0.61237 1.3546 0.61237 3.3588v14.066zm-3.4701-5.1031v-5.7711q-1.5959 0.0928-3.767 0.27835-2.1526 0.18557-3.4144 0.53814-1.5031 0.42681-2.4309 1.3361-0.92784 0.89072-0.92784 2.468 0 1.7814 1.0763 2.6907 1.0763 0.89072 3.2845 0.89072 1.8371 0 3.3588-0.70515 1.5216-0.72372 2.8206-1.7258z"/>
<path d="m371.18 959.51h-3.4887v-2.301q-1.7629 1.3918-3.3773 2.134-1.6144 0.74226-3.5629 0.74226-3.266 0-5.0845-1.9856-1.8186-2.0041-1.8186-5.8639v-13.454h3.4887v11.802q0 1.5773 0.14845 2.7093 0.14846 1.1134 0.63093 1.9113 0.50103 0.8165 1.299 1.1876t2.3196 0.37113q1.3546 0 2.9505-0.70515 1.6144-0.70516 3.0062-1.8v-15.476h3.4887v20.728z"/>
<path d="m390.98 942.59h-0.18557q-0.77938-0.18557-1.5216-0.2598-0.72372-0.0928-1.7258-0.0928-1.6144 0-3.1175 0.72371-1.5031 0.70515-2.8948 1.8371v14.715h-3.4887v-20.728h3.4887v3.0619q2.0784-1.6701 3.6557-2.3567 1.5959-0.70516 3.2474-0.70516 0.90928 0 1.3175 0.0557 0.40825 0.0371 1.2247 0.16701v3.5814z"/>
<path d="m412.54 948.99q0 2.5979-0.74226 4.6763-0.72372 2.0784-1.967 3.4886-1.3175 1.466-2.8948 2.2082-1.5773 0.72371-3.4701 0.72371-1.7629 0-3.0804-0.4268-1.3175-0.40825-2.5979-1.1134l-0.22268 0.96495h-3.266v-28.874h3.4887v10.318q1.466-1.2062 3.1175-1.967 1.6516-0.77939 3.7113-0.77939 3.6742 0 5.7897 2.8206 2.134 2.8206 2.134 7.9608zm-3.6 0.0928q0-3.7113-1.2247-5.6227-1.2247-1.9299-3.9526-1.9299-1.5216 0-3.0804 0.66804-1.5588 0.64949-2.8948 1.6887v11.876q1.4845 0.66804 2.5423 0.92784 1.0763 0.25979 2.4309 0.25979 2.8948 0 4.5278-1.8928 1.6515-1.9113 1.6515-5.9753z"/>
<path d="m434.09 959.51h-3.4701v-2.2082q-0.46392 0.31546-1.2619 0.89072-0.77938 0.5567-1.5216 0.89072-0.87216 0.42681-2.0041 0.70516-1.132 0.2969-2.6536 0.2969-2.8021 0-4.7505-1.8557-1.9484-1.8557-1.9484-4.732 0-2.3567 1.0021-3.8041 1.0206-1.466 2.8948-2.301 1.8928-0.83505 4.5464-1.132t5.6969-0.44536v-0.53814q0-1.1876-0.42681-1.967-0.40825-0.77938-1.1876-1.2248-0.74227-0.4268-1.7814-0.57525-1.0392-0.14846-2.1711-0.14846-1.3732 0-3.0619 0.37114-1.6887 0.35257-3.4887 1.0392h-0.18557v-3.5443q1.0206-0.27835 2.9505-0.61237t3.8041-0.33402q2.1897 0 3.8041 0.37114 1.633 0.35257 2.8206 1.2247 1.1691 0.85361 1.7814 2.2082 0.61237 1.3546 0.61237 3.3588v14.066zm-3.4701-5.1031v-5.7711q-1.5959 0.0928-3.767 0.27835-2.1526 0.18557-3.4144 0.53814-1.5031 0.42681-2.4309 1.3361-0.92784 0.89072-0.92784 2.468 0 1.7814 1.0763 2.6907 1.0763 0.89072 3.2845 0.89072 1.8371 0 3.3588-0.70515 1.5216-0.72372 2.8206-1.7258z"/>
<path d="m458.18 959.51h-3.4887v-11.802q0-1.4289-0.16701-2.6722-0.16701-1.2619-0.61237-1.967-0.46392-0.77938-1.3361-1.1505-0.87216-0.38969-2.2639-0.38969-1.4289 0-2.9876 0.70516-1.5588 0.70515-2.9876 1.8v15.476h-3.4887v-20.728h3.4887v2.301q1.633-1.3546 3.3773-2.1155 1.7443-0.76083 3.5814-0.76083 3.3588 0 5.1216 2.0227 1.7629 2.0227 1.7629 5.8268v13.454z"/>
<path d="m481 959.51h-3.4701v-2.2082q-0.46392 0.31546-1.2618 0.89072-0.77939 0.5567-1.5216 0.89072-0.87217 0.42681-2.0041 0.70516-1.132 0.2969-2.6536 0.2969-2.8021 0-4.7505-1.8557t-1.9484-4.732q0-2.3567 1.0021-3.8041 1.0206-1.466 2.8948-2.301 1.8928-0.83505 4.5464-1.132 2.6536-0.29691 5.6969-0.44536v-0.53814q0-1.1876-0.4268-1.967-0.40825-0.77938-1.1876-1.2248-0.74227-0.4268-1.7814-0.57525-1.0392-0.14846-2.1711-0.14846-1.3732 0-3.0618 0.37114-1.6887 0.35257-3.4887 1.0392h-0.18557v-3.5443q1.0206-0.27835 2.9505-0.61237 1.9299-0.33402 3.8041-0.33402 2.1897 0 3.8041 0.37114 1.633 0.35257 2.8206 1.2247 1.1691 0.85361 1.7814 2.2082 0.61237 1.3546 0.61237 3.3588v14.066zm-3.4701-5.1031v-5.7711q-1.5959 0.0928-3.767 0.27835-2.1526 0.18557-3.4144 0.53814-1.5031 0.42681-2.4309 1.3361-0.92783 0.89072-0.92783 2.468 0 1.7814 1.0763 2.6907 1.0763 0.89072 3.2845 0.89072 1.8371 0 3.3588-0.70515 1.5216-0.72372 2.8206-1.7258z"/>
</g>
<path d="m53.093 724.25c3.9313-3.5578 1.612-9.7389-3.6542-9.7389-4.0633 0-5.9036 1.5825-5.9036 5.0766 0 5.4266 5.6616 8.1883 9.5578 4.6623zm-12.291 29.601c-11.897-12.545-19.026-25.105-19.118-33.679-0.15363-14.442 12.968-27.546 27.583-27.546 11.327 0 22.87 8.3629 25.975 18.82 0.9029 3.0404 1.6416 6.3576 1.6416 7.3718 0 5.5422-2.7472 13.116-7.2712 20.046-5.4676 8.3756-18.251 22.544-20.339 22.544-0.71748 0-4.5296-3.4008-8.4715-7.5572zm324.33-57.376v109.96q0 26.491 9.6581 39.736 9.796 13.107 29.526 13.107 19.04 0 28.974-12.28 10.072-12.28 10.072-35.735v-114.79h42.633v114.79q0 43.323-22.214 67.606-22.214 24.145-61.674 24.145-39.874 0-62.088-24.007-22.076-24.007-22.076-67.469v-115.07h47.187zm-85.129 88.992v97.271q-20.144 10.072-39.322 15.177-19.04 5.105-36.977 5.105-45.669 0-75.885-30.078-30.078-30.216-30.078-76.161 0-46.359 30.492-76.713 30.63-30.354 77.403-30.354 17.66 0 33.665 4.829 16.005 4.829 30.768 14.625l-5.105 50.084q-13.935-14.073-27.732-20.558-13.797-6.6227-28.974-6.6227-26.905 0-44.565 18.074-17.66 17.936-17.66 44.979 0 28.422 16.971 46.497 17.109 17.936 44.013 17.936 6.2088 0 12.555-1.1038t13.245-3.1734v-29.112h-37.942v-40.702h85.129zm-208.2 111.07h-43.737v-124.31l43.737-5.9328v130.25z"/>
</g>
</g>
</svg>
